<svg xmlns="http://www.w3.org/2000/svg" xmlns:xlink="http://www.w3.org/1999/xlink" width="632" height="327" viewBox="0 0 632 327">
  <defs>
    <path id="trychtir2-a" d="M2.37401265,8.11034398 C5.36033174,-12.6133091 23.6950211,14.9689638 31.4398516,7.16292026 C36.6030719,1.95889126 42.4564547,5.41752092 49,17.5388093 L49,64.8227091 L2.37401265,64.8227091 C0.383133255,40.8302344 0.383133255,21.9261127 2.37401265,8.11034398 Z"/>
    <linearGradient id="trychtir2-c" x1="50%" x2="50%" y1="10.981%" y2="100%">
      <stop offset="0%" stop-color="#FFF" stop-opacity="0"/>
      <stop offset="100%" stop-color="#FFF" stop-opacity=".623"/>
    </linearGradient>
    <linearGradient id="trychtir2-d" x1="50%" x2="50%" y1="35.507%" y2="100%">
      <stop offset="0%" stop-color="#FFF" stop-opacity="0"/>
      <stop offset="100%" stop-color="#FFF" stop-opacity=".623"/>
    </linearGradient>
    <linearGradient id="trychtir2-e" x1="50%" x2="50%" y1="8.162%" y2="100%">
      <stop offset="0%" stop-color="#FFF" stop-opacity="0"/>
      <stop offset="100%" stop-color="#FFF" stop-opacity=".3"/>
    </linearGradient>
    <path id="trychtir2-f" d="M339,239.412255 L323,220 L323,209 L363,209 L363,220 L347,239.268716 L347,257 L339,261 L339,239.412255 Z"/>
  </defs>
  <g fill="none" fill-rule="evenodd" transform="translate(-28 -12)">
    <g transform="translate(319 280)">
      <mask id="trychtir2-b" fill="#fff">
        <use xlink:href="#trychtir2-a"/>
      </mask>
      <path fill="#FFF" d="M43.3984181,46.5380874 L43.3984181,46.5380874 C42.3413622,44.7909083 41.0438287,43.2037924 39.5446059,41.8241848 C38.2508289,40.6796606 36.8978174,39.6050706 35.4912619,38.6049343 C34.8641623,38.1450414 34.2171094,37.7138918 33.5615053,37.3114854 C34.2280082,36.9271384 34.8723002,36.5048885 35.4912619,36.0467799 C38.6814455,33.5942349 41.3671995,30.5384203 43.3984181,27.0501244 C43.7745105,26.4255616 43.8809754,25.6730837 43.6930961,24.9673845 C43.5052169,24.2616853 43.0393355,23.6641475 42.4036101,23.3134943 C41.0654799,22.5623609 39.3787762,22.9904018 38.5526483,24.2907668 C36.8934828,27.1536702 34.6965912,29.6628406 32.0849707,31.677797 C29.9248783,33.3701826 27.3165031,34.3802691 24.5882796,34.5808712 C24.3566619,34.5664965 24.1243869,34.5664965 23.8927691,34.5808712 C23.6611514,34.5664965 23.4288764,34.5664965 23.1972586,34.5808712 C20.4690352,34.3802691 17.86066,33.3701826 15.7005676,31.677797 C13.0889471,29.6628406 10.8920555,27.1536702 9.23289003,24.2907668 C8.40676208,22.9904018 6.7200584,22.5623609 5.3819282,23.3134943 C4.74435045,23.6698568 4.27807282,24.2725452 4.09041162,24.9828475 C3.90275042,25.6931498 4.00987142,26.4498783 4.38712015,27.0788677 C6.42734207,30.5524131 9.11196179,33.5971783 12.2942764,36.0467799 C12.9142106,36.5049092 13.5594523,36.9271579 14.2268835,37.3114854 C13.569379,37.7138918 12.9251766,38.1450414 12.2942764,38.6049343 C10.888249,39.6057846 9.53527406,40.6803456 8.24093243,41.8241848 C6.7417096,43.2037924 5.4441761,44.7909083 4.38712015,46.5380874 C4.01019665,47.1624452 3.90326233,47.9152107 4.09120849,48.6211613 C4.27915466,49.3271118 4.74558519,49.9246615 5.3819282,50.2747175 C6.70917359,51.0577159 8.41308581,50.6380258 9.23289003,49.3261883 C10.0205057,48.0153512 10.9899711,46.824825 12.1118474,45.7907614 C13.1579636,44.8422322 14.3409016,43.979933 15.7005676,42.9739172 C16.3398252,42.50351 17.0060923,42.0716075 17.6958846,41.6804683 C17.6189224,41.8241848 17.5391097,41.9679014 17.459297,42.1116179 C15.0338101,46.4326262 13.7013918,51.2896527 13.5798307,56.2533256 C13.6281728,57.7842106 14.8728655,59 16.3918024,59 C17.9107394,59 19.155432,57.7842106 19.2037742,56.2533256 C19.3256074,52.1825432 20.4386298,48.2044831 22.4447391,44.6697724 C22.9464188,43.7212432 23.4480985,42.8876873 23.904171,42.1978479 C24.383047,42.9451739 24.9160817,43.8074731 25.4405651,44.8134889 C27.4015354,48.3109717 28.4884608,52.2373454 28.6074182,56.2533256 C28.6557604,57.7842106 29.900453,59 31.41939,59 C32.9383269,59 34.1830195,57.7842106 34.2313617,56.2533256 C34.108929,51.289407 32.7755274,46.4323651 30.3490449,42.1116179 L30.1124573,41.6804683 C30.8026113,42.0710014 31.4689134,42.5029266 32.1077743,42.9739172 C33.4645899,43.979933 34.6503783,44.8422322 35.693644,45.7907614 C36.8162913,46.8240876 37.7858531,48.0147322 38.5726014,49.3261883 C39.0950991,50.1691953 40.0124882,50.6801057 40.9983368,50.6771238 C41.4958419,50.6665868 41.9839721,50.5386098 42.4235633,50.3034608 C43.0571596,49.9430659 43.5186319,49.3388662 43.7023868,48.6291136 C43.8861417,47.919361 43.7764525,47.1647998 43.3984181,46.5380874 L43.3984181,46.5380874 Z M24.1607117,-10 C13.3289908,-10 7.22617121,-7.90173849 7.22617121,6.81483535 C7.22617121,21.5314092 14.5632369,33.1149624 24.1607117,33.1149624 C32.8830975,33.1149624 40.5622175,21.5026659 40.5622175,6.81483535 C40.5622175,-7.87299519 34.9781804,-10 24.1607117,-10 Z M20.1928813,29.062156 C18.6981368,29.0132295 17.5217976,27.7586797 17.557013,26.2510382 C17.5922284,24.7433966 18.825838,23.5460853 20.3212094,23.5681768 C21.8165807,23.5902684 23.0148772,24.8235069 23.0062783,26.3315417 C22.9735432,27.867393 21.7161129,29.087824 20.1928813,29.062156 Z M27.6040588,29.062156 C26.1112574,29.0132501 24.9363247,27.7605763 24.9710044,26.2548817 C25.0056841,24.7491871 26.2370228,23.5528678 27.7304662,23.5738993 C29.2239095,23.5949308 30.4216375,24.8254577 30.4146053,26.3315417 C30.3803307,27.8701321 29.1185819,29.0910437 27.592657,29.062156 L27.6040588,29.062156 Z" mask="url(#trychtir2-b)"/>
    </g>
    <path stroke="#FFF" d="M361.970448,326.796626 C360.937851,325.089934 359.670412,323.539653 358.213314,322.198679 C356.932789,321.065878 355.593645,320.002302 354.195572,319.008131 C353.59467,318.567451 352.961305,318.143554 352.299948,317.737617 L351.583854,317.298082 L352.311729,316.878344 C352.961755,316.503499 353.590128,316.091681 354.186519,315.650381 C357.325221,313.237414 359.967739,310.230793 361.970082,306.792194 C362.27623,306.283785 362.362956,305.670819 362.209926,305.096019 C362.057049,304.521792 361.67832,304.036035 361.158867,303.7495 C360.05267,303.128558 358.658622,303.48233 357.98525,304.541477 C356.293549,307.460521 354.053477,310.01901 351.393337,312.071383 C349.155178,313.824932 346.452239,314.871638 343.557308,315.079911 C343.346318,315.066817 343.13473,315.066817 342.861798,315.079911 C342.650808,315.066817 342.43922,315.066817 342.160593,315.079525 C339.3333,314.871638 336.63036,313.824932 334.395139,312.073668 C331.732062,310.01901 329.49199,307.460521 327.810857,304.558886 C327.126916,303.48233 325.732868,303.128558 324.625875,303.749946 C324.106884,304.040026 323.726898,304.531178 323.573825,305.110565 C323.420602,305.690515 323.508074,306.308435 323.818252,306.825638 C325.826012,310.243916 328.467819,313.240125 331.591437,315.644666 C332.196095,316.091506 332.825426,316.503343 333.47639,316.878188 L334.206114,317.298386 L333.487891,317.737954 C332.841894,318.133317 332.208872,318.556984 331.584232,319.012274 C330.192486,320.002959 328.853244,321.066613 327.579504,322.192111 C326.115046,323.539727 324.847547,325.090105 323.815167,326.796498 C323.508419,327.304613 323.421332,327.917663 323.574378,328.492526 C323.727272,329.066816 324.106353,329.552461 324.635984,329.844072 C325.729319,330.489076 327.132559,330.143445 327.804304,329.068673 C328.616416,327.717066 329.616085,326.489449 330.775993,325.420354 C331.15725,325.074662 331.569474,324.727921 332.037716,324.356281 C332.628834,323.887116 332.880843,323.698347 334.404223,322.571201 C335.059398,322.089082 335.742265,321.646418 336.449256,321.245527 L337.952434,320.393166 L337.136661,321.91651 C337.07092,322.039274 337.017374,322.136561 336.89658,322.354072 L336.895304,322.356359 C334.509766,326.606198 333.199246,331.383399 333.079582,336.237545 C333.11943,337.499455 334.143762,338.5 335.391802,338.5 C336.639843,338.5 337.664175,337.499455 337.703998,336.238368 C337.828267,332.086215 338.963558,328.028563 341.002752,324.436004 C341.482735,323.528497 341.98726,322.678113 342.487083,321.922099 L342.910719,321.281322 L343.325156,321.928086 C343.951058,322.904859 344.422097,323.6965 344.876691,324.568961 C346.877111,328.136804 347.985856,332.141997 348.107169,336.237545 C348.147018,337.499455 349.171349,338.5 350.41939,338.5 C351.667431,338.5 352.691762,337.499455 352.731514,336.265654 C352.611091,331.383244 351.299605,326.606029 348.910703,322.352152 L347.828057,320.379173 L349.358699,321.245307 C350.066318,321.645723 350.74947,322.088572 351.405573,322.572276 C353.071613,323.807567 353.18444,323.892108 353.769208,324.356305 C354.238425,324.728775 354.650095,325.075403 355.032259,325.422876 C356.190115,326.488609 357.19003,327.716528 357.99759,329.062779 C358.4288,329.7585 359.184893,330.179582 359.987749,330.177236 C360.406535,330.168366 360.817493,330.060622 361.176353,329.86885 C361.692246,329.575405 362.06842,329.082886 362.218346,328.503796 C362.368388,327.92426 362.278859,327.308087 361.970448,326.796626 Z M361.970448,326.796626 C361.970392,326.796531 361.970335,326.796437 361.970278,326.796343 L361.97062,326.796909 C361.970563,326.796814 361.970506,326.79672 361.970448,326.796626 Z M343.160712,270.5 C330.812265,270.5 326.726171,273.854581 326.726171,286.814835 C326.726171,301.355275 333.940114,312.614962 343.160712,312.614962 C351.698867,312.614962 359.062218,301.022138 359.062218,286.814835 C359.062218,273.763052 355.274836,270.5 343.160712,270.5 Z M339.184457,309.562085 L339.176524,309.561888 C337.406687,309.503957 336.01555,308.020328 336.057149,306.239362 C336.098753,304.458245 337.557859,303.042072 339.328595,303.068231 C341.099236,303.09439 342.516428,304.552907 342.506165,306.342196 C342.467583,308.152334 340.983853,309.592407 339.184457,309.562085 Z M346.583196,309.561738 C344.81751,309.501462 343.430198,308.020814 343.471137,306.243369 C343.512114,304.464267 344.968768,303.04904 346.737507,303.073949 C348.506155,303.098856 349.922909,304.554406 349.914481,306.342677 C349.874092,308.155765 348.385491,309.596186 346.583193,309.562066 L346.583196,309.561738 Z"/>
    <path stroke="#979797"/>
    <rect width="4" height="36" x="342" y="256" fill="#FFF" opacity=".8"/>
    <rect width="1" height="36" x="341" y="256" fill="#FFF" opacity=".4"/>
    <rect width="1" height="36" x="340" y="256" fill="#FFF" opacity=".8"/>
    <polygon fill="url(#trychtir2-c)" points="240 0 447 0 361.058 207 325.307 207" opacity=".8"/>
    <polygon fill="url(#trychtir2-d)" points="290 0 397 0 351.058 207 335.307 207" opacity=".8"/>
    <polygon fill="url(#trychtir2-e)" points="0 0 687 0 361.058 207 325.307 207" opacity=".8"/>
    <use fill="#FFF" xlink:href="#trychtir2-f"/>
    <path stroke="#25B8EB" stroke-width="2" d="M338,239.771253 L322,220.358998 L322,208 L364,208 L364,220.361057 L348,239.629773 L348,257.618034 L338,262.618034 L338,239.771253 Z"/>
    <circle cx="417.5" cy="69.5" r="6.5" fill="#FFF" opacity=".2"/>
    <circle cx="417.5" cy="116.5" r="12.5" fill="#FFF" opacity=".2"/>
    <circle cx="206.5" cy="82.5" r="12.5" fill="#FFF" opacity=".2"/>
    <circle cx="305.5" cy="24.5" r="12.5" fill="#FFF" opacity=".2"/>
    <circle cx="326" cy="97" r="20" fill="#FFF" opacity=".2"/>
    <circle cx="467" cy="37" r="20" fill="#FFF" opacity=".2"/>
    <circle cx="247.5" cy="56.5" r="6.5" fill="#FFF" opacity=".2"/>
    <circle cx="336.5" cy="179.5" r="6.5" fill="#FFF" opacity=".5"/>
    <circle cx="336.5" cy="179.5" r="6.5" fill="#FFF" opacity=".5"/>
    <circle cx="369.5" cy="56.5" r="6.5" fill="#FFF" opacity=".5"/>
    <circle cx="535.5" cy="43.5" r="6.5" fill="#FFF" opacity=".5"/>
    <circle cx="254.5" cy="116.5" r="6.5" fill="#FFF" opacity=".5"/>
    <circle cx="168.5" cy="30.5" r="6.5" fill="#FFF" opacity=".5"/>
    <circle cx="343" cy="287" r="5" fill="#FFF" opacity=".5"/>
    <circle cx="346.5" cy="279.5" r="2.5" fill="#FFF" opacity=".5"/>
    <circle cx="338.5" cy="277.5" r="1.5" fill="#FFF" opacity=".5"/>
    <circle cx="340.5" cy="281.5" r="1.5" fill="#FFF" opacity=".5"/>
    <circle cx="351.5" cy="277.5" r="1.5" fill="#FFF" opacity=".5"/>
  </g>
</svg>
