<svg xmlns="http://www.w3.org/2000/svg" xmlns:xlink="http://www.w3.org/1999/xlink" width="632" height="327" viewBox="0 0 632 327">
  <defs>
    <path id="trychtir1-a" d="M6.37401265,17.0456444 C19.1220379,-4.64595797 28.610633,8.13298114 34.1154348,10.9057115 C37.7853026,12.7541984 44.6471633,9.19873892 54.701017,0.239333116 L53,61.8227091 L6.37401265,61.8227091 C-2.12467088,46.4324009 -2.12467088,31.5067126 6.37401265,17.0456444 Z"/>
    <linearGradient id="trychtir1-c" x1="50%" x2="50%" y1="10.981%" y2="100%">
      <stop offset="0%" stop-color="#FFF" stop-opacity="0"/>
      <stop offset="100%" stop-color="#FFF" stop-opacity=".623"/>
    </linearGradient>
    <linearGradient id="trychtir1-d" x1="50%" x2="50%" y1="35.507%" y2="100%">
      <stop offset="0%" stop-color="#FFF" stop-opacity="0"/>
      <stop offset="100%" stop-color="#FFF" stop-opacity=".623"/>
    </linearGradient>
    <linearGradient id="trychtir1-e" x1="50%" x2="50%" y1="8.162%" y2="100%">
      <stop offset="0%" stop-color="#FFF" stop-opacity="0"/>
      <stop offset="100%" stop-color="#FFF" stop-opacity=".3"/>
    </linearGradient>
    <path id="trychtir1-f" d="M339,239.412255 L323,220 L323,209 L363,209 L363,220 L347,239.268716 L347,257 L339,261 L339,239.412255 Z"/>
  </defs>
  <g fill="none" fill-rule="evenodd" transform="translate(-28 -12)">
    <g transform="translate(315 283)">
      <mask id="trychtir1-b" fill="#fff">
        <use xlink:href="#trychtir1-a"/>
      </mask>
      <path fill="#FFF" d="M47.3984181,43.5380874 L47.3984181,43.5380874 C46.3413622,41.7909083 45.0438287,40.2037924 43.5446059,38.8241848 C42.2508289,37.6796606 40.8978174,36.6050706 39.4912619,35.6049343 C38.8641623,35.1450414 38.2171094,34.7138918 37.5615053,34.3114854 C38.2280082,33.9271384 38.8723002,33.5048885 39.4912619,33.0467799 C42.6814455,30.5942349 45.3671995,27.5384203 47.3984181,24.0501244 C47.7745105,23.4255616 47.8809754,22.6730837 47.6930961,21.9673845 C47.5052169,21.2616853 47.0393355,20.6641475 46.4036101,20.3134943 C45.0654799,19.5623609 43.3787762,19.9904018 42.5526483,21.2907668 C40.8934828,24.1536702 38.6965912,26.6628406 36.0849707,28.677797 C33.9248783,30.3701826 31.3165031,31.3802691 28.5882796,31.5808712 C28.3566619,31.5664965 28.1243869,31.5664965 27.8927691,31.5808712 C27.6611514,31.5664965 27.4288764,31.5664965 27.1972586,31.5808712 C24.4690352,31.3802691 21.86066,30.3701826 19.7005676,28.677797 C17.0889471,26.6628406 14.8920555,24.1536702 13.23289,21.2907668 C12.4067621,19.9904018 10.7200584,19.5623609 9.3819282,20.3134943 C8.74435045,20.6698568 8.27807282,21.2725452 8.09041162,21.9828475 C7.90275042,22.6931498 8.00987142,23.4498783 8.38712015,24.0788677 C10.4273421,27.5524131 13.1119618,30.5971783 16.2942764,33.0467799 C16.9142106,33.5049092 17.5594523,33.9271579 18.2268835,34.3114854 C17.569379,34.7138918 16.9251766,35.1450414 16.2942764,35.6049343 C14.888249,36.6057846 13.5352741,37.6803456 12.2409324,38.8241848 C10.7417096,40.2037924 9.4441761,41.7909083 8.38712015,43.5380874 C8.01019665,44.1624452 7.90326233,44.9152107 8.09120849,45.6211613 C8.27915466,46.3271118 8.74558519,46.9246615 9.3819282,47.2747175 C10.7091736,48.0577159 12.4130858,47.6380258 13.23289,46.3261883 C14.0205057,45.0153512 14.9899711,43.824825 16.1118474,42.7907614 C17.1579636,41.8422322 18.3409016,40.979933 19.7005676,39.9739172 C20.3398252,39.50351 21.0060923,39.0716075 21.6958846,38.6804683 C21.6189224,38.8241848 21.5391097,38.9679014 21.459297,39.1116179 C19.0338101,43.4326262 17.7013918,48.2896527 17.5798307,53.2533256 C17.6281728,54.7842106 18.8728655,56 20.3918024,56 C21.9107394,56 23.155432,54.7842106 23.2037742,53.2533256 C23.3256074,49.1825432 24.4386298,45.2044831 26.4447391,41.6697724 C26.9464188,40.7212432 27.4480985,39.8876873 27.904171,39.1978479 C28.383047,39.9451739 28.9160817,40.8074731 29.4405651,41.8134889 C31.4015354,45.3109717 32.4884608,49.2373454 32.6074182,53.2533256 C32.6557604,54.7842106 33.900453,56 35.41939,56 C36.9383269,56 38.1830195,54.7842106 38.2313617,53.2533256 C38.108929,48.289407 36.7755274,43.4323651 34.3490449,39.1116179 L34.1124573,38.6804683 C34.8026113,39.0710014 35.4689134,39.5029266 36.1077743,39.9739172 C37.4645899,40.979933 38.6503783,41.8422322 39.693644,42.7907614 C40.8162913,43.8240876 41.7858531,45.0147322 42.5726014,46.3261883 C43.0950991,47.1691953 44.0124882,47.6801057 44.9983368,47.6771238 C45.4958419,47.6665868 45.9839721,47.5386098 46.4235633,47.3034608 C47.0571596,46.9430659 47.5186319,46.3388662 47.7023868,45.6291136 C47.8861417,44.919361 47.7764525,44.1647998 47.3984181,43.5380874 L47.3984181,43.5380874 Z M28.1607117,-13 C17.3289908,-13 11.2261712,-10.9017385 11.2261712,3.81483535 C11.2261712,18.5314092 18.5632369,30.1149624 28.1607117,30.1149624 C36.8830975,30.1149624 44.5622175,18.5026659 44.5622175,3.81483535 C44.5622175,-10.8729952 38.9781804,-13 28.1607117,-13 Z M24.1928813,26.062156 C22.6981368,26.0132295 21.5217976,24.7586797 21.557013,23.2510382 C21.5922284,21.7433966 22.825838,20.5460853 24.3212094,20.5681768 C25.8165807,20.5902684 27.0148772,21.8235069 27.0062783,23.3315417 C26.9735432,24.867393 25.7161129,26.087824 24.1928813,26.062156 Z M31.6040588,26.062156 C30.1112574,26.0132501 28.9363247,24.7605763 28.9710044,23.2548817 C29.0056841,21.7491871 30.2370228,20.5528678 31.7304662,20.5738993 C33.2239095,20.5949308 34.4216375,21.8254577 34.4146053,23.3315417 C34.3803307,24.8701321 33.1185819,26.0910437 31.592657,26.062156 L31.6040588,26.062156 Z" mask="url(#trychtir1-b)"/>
    </g>
    <path stroke="#FFF" d="M361.970448,326.796626 C360.937851,325.089934 359.670412,323.539653 358.213314,322.198679 C356.932789,321.065878 355.593645,320.002302 354.195572,319.008131 C353.59467,318.567451 352.961305,318.143554 352.299948,317.737617 L351.583854,317.298082 L352.311729,316.878344 C352.961755,316.503499 353.590128,316.091681 354.186519,315.650381 C357.325221,313.237414 359.967739,310.230793 361.970082,306.792194 C362.27623,306.283785 362.362956,305.670819 362.209926,305.096019 C362.057049,304.521792 361.67832,304.036035 361.158867,303.7495 C360.05267,303.128558 358.658622,303.48233 357.98525,304.541477 C356.293549,307.460521 354.053477,310.01901 351.393337,312.071383 C349.155178,313.824932 346.452239,314.871638 343.557308,315.079911 C343.346318,315.066817 343.13473,315.066817 342.861798,315.079911 C342.650808,315.066817 342.43922,315.066817 342.160593,315.079525 C339.3333,314.871638 336.63036,313.824932 334.395139,312.073668 C331.732062,310.01901 329.49199,307.460521 327.810857,304.558886 C327.126916,303.48233 325.732868,303.128558 324.625875,303.749946 C324.106884,304.040026 323.726898,304.531178 323.573825,305.110565 C323.420602,305.690515 323.508074,306.308435 323.818252,306.825638 C325.826012,310.243916 328.467819,313.240125 331.591437,315.644666 C332.196095,316.091506 332.825426,316.503343 333.47639,316.878188 L334.206114,317.298386 L333.487891,317.737954 C332.841894,318.133317 332.208872,318.556984 331.584232,319.012274 C330.192486,320.002959 328.853244,321.066613 327.579504,322.192111 C326.115046,323.539727 324.847547,325.090105 323.815167,326.796498 C323.508419,327.304613 323.421332,327.917663 323.574378,328.492526 C323.727272,329.066816 324.106353,329.552461 324.635984,329.844072 C325.729319,330.489076 327.132559,330.143445 327.804304,329.068673 C328.616416,327.717066 329.616085,326.489449 330.775993,325.420354 C331.15725,325.074662 331.569474,324.727921 332.037716,324.356281 C332.628834,323.887116 332.880843,323.698347 334.404223,322.571201 C335.059398,322.089082 335.742265,321.646418 336.449256,321.245527 L337.952434,320.393166 L337.136661,321.91651 C337.07092,322.039274 337.017374,322.136561 336.89658,322.354072 L336.895304,322.356359 C334.509766,326.606198 333.199246,331.383399 333.079582,336.237545 C333.11943,337.499455 334.143762,338.5 335.391802,338.5 C336.639843,338.5 337.664175,337.499455 337.703998,336.238368 C337.828267,332.086215 338.963558,328.028563 341.002752,324.436004 C341.482735,323.528497 341.98726,322.678113 342.487083,321.922099 L342.910719,321.281322 L343.325156,321.928086 C343.951058,322.904859 344.422097,323.6965 344.876691,324.568961 C346.877111,328.136804 347.985856,332.141997 348.107169,336.237545 C348.147018,337.499455 349.171349,338.5 350.41939,338.5 C351.667431,338.5 352.691762,337.499455 352.731514,336.265654 C352.611091,331.383244 351.299605,326.606029 348.910703,322.352152 L347.828057,320.379173 L349.358699,321.245307 C350.066318,321.645723 350.74947,322.088572 351.405573,322.572276 C353.071613,323.807567 353.18444,323.892108 353.769208,324.356305 C354.238425,324.728775 354.650095,325.075403 355.032259,325.422876 C356.190115,326.488609 357.19003,327.716528 357.99759,329.062779 C358.4288,329.7585 359.184893,330.179582 359.987749,330.177236 C360.406535,330.168366 360.817493,330.060622 361.176353,329.86885 C361.692246,329.575405 362.06842,329.082886 362.218346,328.503796 C362.368388,327.92426 362.278859,327.308087 361.970448,326.796626 Z M361.970448,326.796626 C361.970392,326.796531 361.970335,326.796437 361.970278,326.796343 L361.97062,326.796909 C361.970563,326.796814 361.970506,326.79672 361.970448,326.796626 Z M343.160712,270.5 C330.812265,270.5 326.726171,273.854581 326.726171,286.814835 C326.726171,301.355275 333.940114,312.614962 343.160712,312.614962 C351.698867,312.614962 359.062218,301.022138 359.062218,286.814835 C359.062218,273.763052 355.274836,270.5 343.160712,270.5 Z M339.184457,309.562085 L339.176524,309.561888 C337.406687,309.503957 336.01555,308.020328 336.057149,306.239362 C336.098753,304.458245 337.557859,303.042072 339.328595,303.068231 C341.099236,303.09439 342.516428,304.552907 342.506165,306.342196 C342.467583,308.152334 340.983853,309.592407 339.184457,309.562085 Z M346.583196,309.561738 C344.81751,309.501462 343.430198,308.020814 343.471137,306.243369 C343.512114,304.464267 344.968768,303.04904 346.737507,303.073949 C348.506155,303.098856 349.922909,304.554406 349.914481,306.342677 C349.874092,308.155765 348.385491,309.596186 346.583193,309.562066 L346.583196,309.561738 Z"/>
    <path stroke="#979797"/>
    <rect width="4" height="36" x="342" y="256" fill="#FFF" opacity=".8"/>
    <rect width="1" height="36" x="341" y="256" fill="#FFF" opacity=".4"/>
    <rect width="1" height="36" x="340" y="256" fill="#FFF" opacity=".8"/>
    <polygon fill="url(#trychtir1-c)" points="240 0 447 0 361.058 207 325.307 207" opacity=".8"/>
    <polygon fill="url(#trychtir1-d)" points="290 0 397 0 351.058 207 335.307 207" opacity=".8"/>
    <polygon fill="url(#trychtir1-e)" points="0 0 687 0 361.058 207 325.307 207" opacity=".8"/>
    <use fill="#FFF" xlink:href="#trychtir1-f"/>
    <path stroke="#25B8EB" stroke-width="2" d="M338,239.771253 L322,220.358998 L322,208 L364,208 L364,220.361057 L348,239.629773 L348,257.618034 L338,262.618034 L338,239.771253 Z"/>
    <circle cx="417.5" cy="69.5" r="6.5" fill="#FFF" opacity=".2"/>
    <circle cx="417.5" cy="116.5" r="12.5" fill="#FFF" opacity=".2"/>
    <circle cx="206.5" cy="82.5" r="12.5" fill="#FFF" opacity=".2"/>
    <circle cx="305.5" cy="24.5" r="12.5" fill="#FFF" opacity=".2"/>
    <circle cx="326" cy="97" r="20" fill="#FFF" opacity=".2"/>
    <circle cx="467" cy="37" r="20" fill="#FFF" opacity=".2"/>
    <circle cx="247.5" cy="56.5" r="6.5" fill="#FFF" opacity=".2"/>
    <circle cx="336.5" cy="179.5" r="6.5" fill="#FFF" opacity=".5"/>
    <circle cx="336.5" cy="179.5" r="6.5" fill="#FFF" opacity=".5"/>
    <circle cx="369.5" cy="56.5" r="6.5" fill="#FFF" opacity=".5"/>
    <circle cx="535.5" cy="43.5" r="6.5" fill="#FFF" opacity=".5"/>
    <circle cx="254.5" cy="116.5" r="6.5" fill="#FFF" opacity=".5"/>
    <circle cx="168.5" cy="30.5" r="6.5" fill="#FFF" opacity=".5"/>
    <circle cx="343" cy="290" r="5" fill="#FFF" opacity=".5"/>
    <circle cx="350.5" cy="282.5" r="2.5" fill="#FFF" opacity=".5"/>
    <circle cx="337.5" cy="283.5" r="1.5" fill="#FFF" opacity=".5"/>
    <circle cx="347.5" cy="287.5" r="1.5" fill="#FFF" opacity=".5"/>
    <circle cx="349.5" cy="276.5" r="1.5" fill="#FFF" opacity=".5"/>
  </g>
</svg>
