<svg xmlns="http://www.w3.org/2000/svg" width="315" height="34" viewBox="0 0 315 34">
  <g fill="#FFF" fill-rule="evenodd">
    <path d="M0.157894737,26.3681426 L0.157894737,4.2040253 C0.157894737,2.92242668 1.17951636,1.9046866 2.50384068,1.9046866 C3.79032717,1.9046866 4.81194879,2.92242668 4.81194879,4.2040253 L4.81194879,15.3614721 L17.374111,2.77165037 C17.9038407,2.20623922 18.4714083,1.9046866 19.3038407,1.9046866 C20.5903272,1.9046866 21.4605974,2.92242668 21.4605974,4.05324899 C21.4605974,4.76943646 21.1578947,5.29715354 20.628165,5.78717654 L12.3795164,13.7029327 L21.3092461,24.7472973 C21.6876245,25.2373203 21.9524893,25.6896492 21.9524893,26.4058367 C21.9524893,27.6874353 20.9308677,28.6674813 19.6065434,28.6674813 C18.6984353,28.6674813 18.1308677,28.2151524 17.6389758,27.5743531 L9.1254623,16.756153 L4.81194879,20.9025014 L4.81194879,26.3681426 C4.81194879,27.6497412 3.79032717,28.6674813 2.50384068,28.6674813 C1.17951636,28.6674813 0.157894737,27.6497412 0.157894737,26.3681426 Z M26.2261735,17.1330937 L36.4802275,17.1330937 C36.1775248,14.1929557 34.4369843,11.893617 31.4099573,11.893617 C28.6099573,11.893617 26.6423897,14.0421794 26.2261735,17.1330937 Z M39.1288762,26.2927545 C37.31266,27.9135998 35.0423897,28.9313399 31.939687,28.9313399 C26.1504978,28.9313399 21.685633,24.7472973 21.685633,18.6031627 L21.685633,18.5277746 C21.685633,12.8359689 25.7342816,8.16190339 31.4477951,8.16190339 C37.8045519,8.16190339 40.9450924,13.363686 40.9450924,17.9623634 C40.9450924,19.243962 39.9613086,20.1486199 38.7883357,20.1486199 L26.2640113,20.1486199 C26.7559032,23.3903105 29.0640113,25.1996262 32.0153627,25.1996262 C33.9450924,25.1996262 35.4586059,24.5211328 36.7450924,23.4656987 C37.085633,23.2018401 37.3883357,23.0510638 37.9180654,23.0510638 C38.939687,23.0510638 39.7342816,23.8426394 39.7342816,24.8980736 C39.7342816,25.4634848 39.4694167,25.9535078 39.1288762,26.2927545 Z M42.9485063,26.4058367 L42.9485063,3.03550891 C42.9485063,1.75391029 43.9322901,0.77386429 45.2187766,0.77386429 C46.5052631,0.77386429 47.5268847,1.75391029 47.5268847,3.03550891 L47.5268847,11.893617 C49.0025604,9.82044278 51.0836414,8.16190339 54.3376955,8.16190339 C59.0295874,8.16190339 63.6079658,11.8559229 63.6079658,18.4900805 L63.6079658,18.5654687 C63.6079658,25.1619321 59.0674252,28.8936458 54.3376955,28.8936458 C51.0079658,28.8936458 48.9268847,27.2351064 47.5268847,25.3880966 L47.5268847,26.4058367 C47.5268847,27.6497412 46.5052631,28.6674813 45.2187766,28.6674813 C43.9701279,28.6674813 42.9485063,27.6497412 42.9485063,26.4058367 Z M53.2403982,24.9357677 C56.3809387,24.9357677 58.9539117,22.4856527 58.9539117,18.5654687 L58.9539117,18.4900805 C58.9539117,14.6452846 56.3431009,12.1197815 53.2403982,12.1197815 C50.1376955,12.1197815 47.4133712,14.6829787 47.4133712,18.4900805 L47.4133712,18.5654687 C47.4133712,22.3725704 50.1376955,24.9357677 53.2403982,24.9357677 Z M75.1465148,28.9313399 C69.0546229,28.9313399 64.5519202,24.2949684 64.5519202,18.6408568 L64.5519202,18.5654687 C64.5519202,12.873663 69.0924607,8.16190339 75.2221905,8.16190339 C81.3519202,8.16190339 85.8546229,12.7982749 85.8546229,18.4900805 L85.8546229,18.5654687 C85.8546229,24.2195802 81.3140824,28.9313399 75.1465148,28.9313399 Z M75.2221905,24.9357677 C78.9302986,24.9357677 81.2762445,22.0710178 81.2762445,18.6408568 L81.2762445,18.5654687 C81.2762445,15.0599195 78.7411094,12.1574756 75.1465148,12.1574756 C71.4762445,12.1574756 69.1302986,15.0222254 69.1302986,18.4900805 L69.1302986,18.5654687 C69.1302986,22.0333237 71.6654337,24.9357677 75.2221905,24.9357677 Z M97.3174963,28.9313399 C91.2256044,28.9313399 86.7229017,24.2949684 86.7229017,18.6408568 L86.7229017,18.5654687 C86.7229017,12.873663 91.2634422,8.16190339 97.3931719,8.16190339 C103.522902,8.16190339 108.025604,12.7982749 108.025604,18.4900805 L108.025604,18.5654687 C108.025604,24.2195802 103.485064,28.9313399 97.3174963,28.9313399 Z M97.3931719,24.9357677 C101.10128,24.9357677 103.447226,22.0710178 103.447226,18.6408568 L103.447226,18.5654687 C103.447226,15.0599195 100.912091,12.1574756 97.3174963,12.1574756 C93.647226,12.1574756 91.30128,15.0222254 91.30128,18.4900805 L91.30128,18.5654687 C91.30128,22.0333237 93.8364152,24.9357677 97.3931719,24.9357677 Z M110.256045,26.4058367 C110.256045,27.6874353 111.277667,28.6674813 112.526316,28.6674813 C113.812802,28.6674813 114.834424,27.6874353 114.834424,26.4058367 L114.834424,3.03550891 C114.834424,1.79160437 113.812802,0.77386429 112.526316,0.77386429 C111.239829,0.77386429 110.256045,1.79160437 110.256045,3.03550891 L110.256045,26.4058367 Z M123.875675,28.8936458 C120.129729,28.8936458 116.8,26.7450834 116.8,22.7495112 L116.8,22.6741231 C116.8,18.3769983 120.167567,16.26613 125.048648,16.26613 C127.281081,16.26613 128.87027,16.6053767 130.421621,17.0953997 L130.421621,16.6053767 C130.421621,13.7783209 128.681081,12.2705578 125.464865,12.2705578 C123.724324,12.2705578 122.286486,12.5721104 121.037838,13.0621334 C120.772973,13.1375216 120.545946,13.1752156 120.318919,13.1752156 C119.259459,13.1752156 118.389189,12.3459459 118.389189,11.2905118 C118.389189,10.4612421 118.956756,9.74505463 119.637838,9.48119609 C121.529729,8.76500863 123.459459,8.3126797 126.07027,8.3126797 C129.059459,8.3126797 131.291892,9.10425532 132.691892,10.5366302 C134.167567,11.9690052 134.848648,14.0798735 134.848648,16.6807648 L134.848648,26.4812248 C134.848648,27.7251294 133.864865,28.6674813 132.616216,28.6674813 C131.291892,28.6674813 130.383783,27.7628235 130.383783,26.7450834 L130.383783,25.9912018 C129.021621,27.6120472 126.94054,28.8936458 123.875675,28.8936458 Z M125.162162,25.576567 C128.189189,25.576567 130.497297,23.8426394 130.497297,21.3171363 L130.497297,19.9601495 C129.324324,19.5078206 127.772973,19.1685739 125.956756,19.1685739 C123.005405,19.1685739 121.264865,20.4124784 121.264865,22.4856527 L121.264865,22.5610408 C121.264865,24.4834388 122.967567,25.576567 125.162162,25.576567 Z"/>
    <path d="M159.102958,28.4142539 C155.56988,28.4142539 152,26.3930958 152,22.4977728 L152,22.4242762 C152,18.4187082 155.31226,16.2873051 160.133439,16.2873051 C162.562429,16.2873051 164.292165,16.6180401 165.985098,17.0957684 L165.985098,16.4342984 C165.985098,13.0167038 163.887333,11.252784 160.317453,11.252784 C158.403703,11.252784 156.784376,11.6937639 155.385866,12.3184855 C155.201851,12.3919822 155.017837,12.4287305 154.870625,12.4287305 C154.208173,12.4287305 153.619327,11.8775056 153.619327,11.2160356 C153.619327,10.6280624 154.024159,10.1870824 154.392188,10.0400891 C156.269135,9.23162584 158.182886,8.75389755 160.611876,8.75389755 C163.298487,8.75389755 165.359449,9.45211581 166.757959,10.8485523 C168.04606,12.1347439 168.708512,13.9721604 168.708512,16.3975501 L168.708512,26.7973274 C168.708512,27.6057906 168.119666,28.1937639 167.346805,28.1937639 C166.537142,28.1937639 165.985098,27.6057906 165.985098,26.8708241 L165.985098,25.1436526 C164.660194,26.8708241 162.452021,28.4142539 159.102958,28.4142539 Z M159.655001,26.1726058 C163.151276,26.1726058 166.021901,24.0412027 166.021901,21.0278396 L166.021901,19.1904232 C164.623391,18.7861915 162.746444,18.3819599 160.427862,18.3819599 C156.857981,18.3819599 154.870625,19.9253898 154.870625,22.3140312 L154.870625,22.3875278 C154.870625,24.7761693 157.078799,26.1726058 159.655001,26.1726058 Z M183.319259,28.4510022 C177.762023,28.4510022 173.566494,23.9309577 173.566494,18.6024499 L173.566494,18.5289532 C173.566494,13.1636971 177.762023,8.60690423 183.319259,8.60690423 C186.484308,8.60690423 188.618876,9.81959911 190.311809,11.363029 C190.532626,11.5467706 190.753443,11.9142539 190.753443,12.3552339 C190.753443,13.1269488 190.127794,13.714922 189.391736,13.714922 C189.023707,13.714922 188.692481,13.5679287 188.471664,13.3841871 C187.109957,12.1347439 185.564236,11.1057906 183.282457,11.1057906 C179.418153,11.1057906 176.473922,14.376392 176.473922,18.4554566 L176.473922,18.5289532 C176.473922,22.6447661 179.491759,25.9153675 183.466471,25.9153675 C185.637841,25.9153675 187.367577,24.9231626 188.766087,23.6002227 C188.950102,23.4164811 189.207722,23.2327394 189.575751,23.2327394 C190.275006,23.2327394 190.863852,23.857461 190.863852,24.518931 C190.863852,24.8496659 190.71664,25.1804009 190.495823,25.4008909 C188.692481,27.201559 186.521111,28.4510022 183.319259,28.4510022 Z M201.426281,28.4142539 C197.893204,28.4142539 194.323324,26.3930958 194.323324,22.4977728 L194.323324,22.4242762 C194.323324,18.4187082 197.635584,16.2873051 202.456762,16.2873051 C204.885753,16.2873051 206.615489,16.6180401 208.308422,17.0957684 L208.308422,16.4342984 C208.308422,13.0167038 206.210657,11.252784 202.640777,11.252784 C200.727026,11.252784 199.107699,11.6937639 197.709189,12.3184855 C197.525175,12.3919822 197.341161,12.4287305 197.193949,12.4287305 C196.531497,12.4287305 195.942651,11.8775056 195.942651,11.2160356 C195.942651,10.6280624 196.347483,10.1870824 196.715511,10.0400891 C198.592459,9.23162584 200.506209,8.75389755 202.9352,8.75389755 C205.621811,8.75389755 207.682773,9.45211581 209.081282,10.8485523 C210.369384,12.1347439 211.031836,13.9721604 211.031836,16.3975501 L211.031836,26.7973274 C211.031836,27.6057906 210.442989,28.1937639 209.670129,28.1937639 C208.860465,28.1937639 208.308422,27.6057906 208.308422,26.8708241 L208.308422,25.1436526 C206.983518,26.8708241 204.775344,28.4142539 201.426281,28.4142539 Z M201.978325,26.1726058 C205.474599,26.1726058 208.345225,24.0412027 208.345225,21.0278396 L208.345225,19.1904232 C206.946715,18.7861915 205.069767,18.3819599 202.751185,18.3819599 C199.181305,18.3819599 197.193949,19.9253898 197.193949,22.3140312 L197.193949,22.3875278 C197.193949,24.7761693 199.402122,26.1726058 201.978325,26.1726058 Z M235.174531,2.43318486 L235.174531,26.7605791 C235.174531,27.5690423 234.548882,28.1937639 233.776022,28.1937639 C232.966358,28.1937639 232.340709,27.5690423 232.340709,26.7605791 L232.340709,24.188196 C230.794988,26.4665924 228.550011,28.4142539 225.053737,28.4142539 C220.490178,28.4142539 215.963423,24.8129176 215.963423,18.5657016 L215.963423,18.4922049 C215.963423,12.2817372 220.490178,8.60690423 225.053737,8.60690423 C228.586814,8.60690423 230.868593,10.5178174 232.340709,12.6492205 L232.340709,2.43318486 C232.340709,1.6247216 232.929555,1 233.739219,1 C234.548882,1 235.174531,1.6247216 235.174531,2.43318486 Z M225.568977,11.142539 C221.888688,11.142539 218.870851,13.8619154 218.870851,18.4554566 L218.870851,18.5289532 C218.870851,23.0122494 221.999097,25.8786192 225.568977,25.8786192 C229.102055,25.8786192 232.451118,22.9020045 232.451118,18.5289532 L232.451118,18.4554566 C232.451118,14.0824053 229.102055,11.142539 225.568977,11.142539 Z M243.197562,17.4632517 L255.452924,17.4632517 C255.158501,14.0089087 253.171145,10.9955457 249.380447,10.9955457 C246.068187,10.9955457 243.56559,13.7516704 243.197562,17.4632517 Z M256.998645,25.5846325 C255.195304,27.311804 253.060736,28.4510022 249.822082,28.4510022 C244.596071,28.4510022 240.326936,24.4454343 240.326936,18.5657016 L240.326936,18.4922049 C240.326936,13.0167038 244.19124,8.60690423 249.454053,8.60690423 C255.084895,8.60690423 258.286746,13.2004454 258.286746,18.2349666 C258.286746,19.0066815 257.661097,19.5579065 256.961842,19.5579065 L243.197562,19.5579065 C243.602393,23.6737194 246.509822,25.9888641 249.895688,25.9888641 C252.251072,25.9888641 253.980808,25.0701559 255.379318,23.7839644 C255.600135,23.6002227 255.857756,23.4532294 256.188982,23.4532294 C256.888237,23.4532294 257.44028,24.0044543 257.44028,24.6659243 C257.44028,24.9966592 257.293068,25.3273942 256.998645,25.5846325 Z M263.291939,26.7605791 L263.291939,10.2605791 C263.291939,9.48886414 263.917589,8.82739421 264.690449,8.82739421 C265.500113,8.82739421 266.125762,9.45211581 266.125762,10.2605791 L266.125762,12.2082405 C267.37706,10.3340757 269.069993,8.60690423 272.271845,8.60690423 C275.363287,8.60690423 277.350643,10.2605791 278.381124,12.3919822 C279.742831,10.2973274 281.76699,8.60690423 285.07925,8.60690423 C289.458794,8.60690423 292.145405,11.5467706 292.145405,16.2505568 L292.145405,26.7605791 C292.145405,27.5690423 291.519756,28.1937639 290.746895,28.1937639 C289.937232,28.1937639 289.311583,27.5690423 289.311583,26.7605791 L289.311583,16.9120267 C289.311583,13.2371938 287.471438,11.1792873 284.379995,11.1792873 C281.50937,11.1792873 279.153985,13.3106904 279.153985,17.05902 L279.153985,26.7605791 C279.153985,27.5690423 278.528336,28.1937639 277.718672,28.1937639 C276.945812,28.1937639 276.320163,27.5690423 276.320163,26.7605791 L276.320163,16.8385301 C276.320163,13.2739421 274.443215,11.1792873 271.425378,11.1792873 C268.407541,11.1792873 266.125762,13.6781737 266.125762,17.169265 L266.125762,26.7605791 C266.125762,27.5690423 265.536916,28.1937639 264.727252,28.1937639 C263.917589,28.1937639 263.291939,27.5690423 263.291939,26.7605791 Z M301.051705,34 C299.800406,34 298.880334,33.77951 297.923459,33.4487751 C297.481824,33.2650334 297.04019,32.8975501 297.04019,32.2360802 C297.04019,31.5378619 297.629036,31.0233853 298.254685,31.0233853 C298.512305,31.0233853 298.733123,31.096882 298.95394,31.1703786 C299.505983,31.3541203 300.058027,31.5011136 301.014902,31.5011136 C302.781441,31.5011136 303.811921,30.435412 304.842402,28.1202673 L304.989614,27.8262806 L297.04019,10.9955457 C296.929781,10.7383073 296.856175,10.481069 296.856175,10.2238307 C296.856175,9.45211581 297.481824,8.82739421 298.291488,8.82739421 C299.064349,8.82739421 299.46918,9.30512249 299.726801,9.9298441 L306.351321,24.8496659 L312.239783,9.89309577 C312.460601,9.30512249 312.865432,8.82739421 313.60149,8.82739421 C314.374351,8.82739421 315,9.45211581 315,10.2238307 C315,10.4443207 314.926394,10.701559 314.852788,10.922049 L307.418605,28.6347439 C305.762475,32.5668151 303.92233,34 301.051705,34 Z" opacity=".7"/>
  </g>
</svg>
